<svg width="16" height="16" viewBox="0 0 16 16" fill="none" xmlns="http://www.w3.org/2000/svg">
<path d="M13.3335 0H7.3335C6.96483 0 6.66683 0.298667 6.66683 0.666667C6.66683 1.03467 6.96483 1.33333 7.3335 1.33333H13.3335C13.4528 1.33333 13.5682 1.34933 13.6788 1.37867L0.1955 14.862C-0.0651667 15.1227 -0.0651667 15.544 0.1955 15.8047C0.3255 15.9347 0.496167 16 0.666833 16C0.8375 16 1.00817 15.9347 1.13817 15.8047L14.6215 2.32133C14.6508 2.43133 14.6668 2.54733 14.6668 2.66667V8.66667C14.6668 9.03467 14.9648 9.33333 15.3335 9.33333C15.7022 9.33333 16.0002 9.03467 16.0002 8.66667V2.66667C16.0002 1.196 14.8042 0 13.3335 0Z" fill="#001F3F"/>
</svg>
