<svg width="32" height="32" viewBox="0 0 32 32" fill="none" xmlns="http://www.w3.org/2000/svg">
<path d="M30.5726 8.35081C32.4796 6.44114 32.4796 3.33792 30.5726 1.43225C28.6656 -0.477418 25.5583 -0.477418 23.6527 1.43225L9.06743 16.0148C7.05507 15.9041 5.00671 16.6163 3.47177 18.1499C1.47008 20.1529 0.339218 25.8059 0.0218281 28.513C-0.0901916 29.4639 0.232532 30.396 0.907318 31.0708C1.49275 31.6576 2.27423 31.979 3.09437 31.979C3.21839 31.979 3.34241 31.971 3.4651 31.9563C3.78649 31.919 11.3838 30.9988 13.8523 28.5304C15.3859 26.9968 16.0967 24.9484 15.986 22.9361L30.5726 8.35081ZM11.9653 26.6434C10.8264 27.7822 6.50431 28.9118 3.15171 29.3065C2.97168 29.3345 2.84766 29.2398 2.79165 29.1838C2.73697 29.1291 2.64763 29.0091 2.66896 28.8224C3.06103 25.4858 4.23457 21.1584 5.35744 20.0342C6.2696 19.1234 7.46448 18.6686 8.66202 18.6686C9.85956 18.6686 11.0544 19.1247 11.9666 20.0342C13.7883 21.8559 13.7883 24.8204 11.9666 26.642L11.9653 26.6434ZM13.8509 18.1499C13.3028 17.6018 12.6881 17.1577 12.0333 16.8203L25.537 3.31659C26.4038 2.44977 27.8187 2.44977 28.6856 3.31659C29.5524 4.18341 29.5524 5.59566 28.6856 6.46381L15.1805 19.9675C14.8418 19.3127 14.399 18.698 13.8509 18.1499Z" fill="white"/>
<path d="M6.29623 13.213C6.55628 13.473 6.89767 13.6037 7.23906 13.6037C7.58046 13.6037 7.92185 13.473 8.1819 13.213C8.70332 12.6916 8.70332 11.8487 8.1819 11.3273L3.31971 6.46513C2.45155 5.59698 2.45155 4.18473 3.31971 3.31657C4.18786 2.44975 5.60144 2.44975 6.46693 3.31657L11.3291 8.1801C11.8505 8.70152 12.6934 8.70152 13.2148 8.1801C13.7362 7.65867 13.7362 6.81586 13.2148 6.29443L8.35259 1.43091C6.44292 -0.476096 3.33971 -0.476096 1.43271 1.42957C-0.474298 3.33524 -0.475631 6.44246 1.43271 8.34946L6.2949 13.2117L6.29623 13.213Z" fill="white"/>
<path d="M29.6603 22.7401L25.7196 18.7981C25.1982 18.2766 24.3553 18.2766 23.8339 18.7981C23.3125 19.3195 23.3125 20.1623 23.8339 20.6837L27.7746 24.6257C28.7681 25.6179 29.3376 26.9915 29.3376 28.3971V29.3359H28.4001C26.9745 29.3359 25.6342 28.7811 24.6274 27.773L20.6854 23.8323C20.1639 23.3108 19.3211 23.3108 18.7997 23.8323C18.2783 24.3537 18.2783 25.1965 18.7997 25.7179L22.7417 29.6586C24.2513 31.1709 26.2624 32.0031 28.4001 32.0031H30.6711C31.4086 32.0031 32.0047 31.4069 32.0047 30.6695V28.3971C32.0047 26.29 31.1499 24.227 29.6603 22.7401Z" fill="white"/>
</svg>
