<svg width="14" height="14" viewBox="0 0 14 14" fill="none" xmlns="http://www.w3.org/2000/svg">
<path d="M-0.00218654 3.64047C-0.00218654 8.09714 5.90698 14.0005 10.3578 14.0005C11.332 14.0005 12.242 13.633 12.9128 12.9621L13.4961 12.2913C14.1728 11.6146 14.1728 10.4713 13.467 9.76547C13.4495 9.74797 12.0436 8.6688 12.0436 8.6688C11.3436 8.0038 10.2411 8.0038 9.54698 8.6688L8.69531 9.3513C6.82865 8.55797 5.50448 7.22797 4.65281 5.29714L5.32948 4.44547C6.00031 3.7513 6.00031 2.64297 5.32948 1.9488C5.32948 1.9488 4.25031 0.542969 4.23281 0.525469C3.52698 -0.180365 2.38365 -0.180365 1.67781 0.525469L1.06531 1.0563C0.365314 1.75047 -0.00218654 2.66047 -0.00218654 3.63464V3.64047Z" fill="#C1D4E8"/>
</svg>
