<svg width="14" height="13" viewBox="0 0 14 13" fill="none" xmlns="http://www.w3.org/2000/svg">
<path d="M11.0834 0H2.91673C2.14346 0.00092625 1.40214 0.308514 0.855356 0.855295C0.308576 1.40208 0.000987285 2.1434 6.10352e-05 2.91667L6.10352e-05 9.91667C0.000987285 10.6899 0.308576 11.4313 0.855356 11.978C1.40214 12.5248 2.14346 12.8324 2.91673 12.8333H11.0834C11.8567 12.8324 12.598 12.5248 13.1448 11.978C13.6915 11.4313 13.9991 10.6899 14.0001 9.91667V2.91667C13.9991 2.1434 13.6915 1.40208 13.1448 0.855295C12.598 0.308514 11.8567 0.00092625 11.0834 0ZM2.91673 1.16667H11.0834C11.4327 1.16735 11.7738 1.27255 12.0628 1.46872C12.3518 1.66489 12.5755 1.94305 12.7051 2.26742L8.23789 6.73517C7.90914 7.0626 7.46405 7.24644 7.00006 7.24644C6.53607 7.24644 6.09098 7.0626 5.76223 6.73517L1.29506 2.26742C1.42465 1.94305 1.64834 1.66489 1.93734 1.46872C2.22634 1.27255 2.56744 1.16735 2.91673 1.16667ZM11.0834 11.6667H2.91673C2.4526 11.6667 2.00748 11.4823 1.67929 11.1541C1.3511 10.8259 1.16673 10.3808 1.16673 9.91667V3.79167L4.93739 7.56C5.48493 8.10615 6.22671 8.41286 7.00006 8.41286C7.77341 8.41286 8.5152 8.10615 9.06273 7.56L12.8334 3.79167V9.91667C12.8334 10.3808 12.649 10.8259 12.3208 11.1541C11.9926 11.4823 11.5475 11.6667 11.0834 11.6667Z" fill="#C1D4E8"/>
</svg>
