<svg width="40" height="37" viewBox="0 0 40 37" fill="none" xmlns="http://www.w3.org/2000/svg">
<path d="M38.3333 25.2273V20.0473C38.3333 12.0855 33.0283 5.04882 25.3667 2.73632C24.1517 1.07805 22.1983 0 20 0C17.8017 0 15.8483 1.07805 14.6333 2.73632C6.97 5.04882 1.66667 12.0855 1.66667 20.0473V25.2273C0.746667 25.2273 0 25.979 0 26.9091C0 27.8391 0.746667 28.5909 1.66667 28.5909H2.45833C4.12833 30.858 9.61333 37 20 37C30.3867 37 35.87 30.858 37.5417 28.5909H38.3333C39.255 28.5909 40 27.8391 40 26.9091C40 25.979 39.255 25.2273 38.3333 25.2273ZM35 20.0473V25.2273H26.6667V6.84332C31.685 9.29373 35 14.3846 35 20.0473ZM20 3.36364C21.8383 3.36364 23.3333 4.86886 23.3333 6.71718V25.2273H16.6667V6.71718C16.6667 4.86718 18.1617 3.36364 20 3.36364ZM13.3333 6.84332V25.2273H5V20.0473C5 14.3846 8.31333 9.29373 13.3333 6.84332ZM6.90167 28.5909H33.075C30.76 30.7975 26.515 33.6364 20 33.6364C13.435 33.6364 9.20167 30.7991 6.90167 28.5909Z" fill="white"/>
</svg>
