<svg width="48" height="42" viewBox="0 0 48 42" fill="none" xmlns="http://www.w3.org/2000/svg">
<path d="M47.9833 20.959C47.9833 22.4355 46.7333 23.5922 45.3167 23.5922H42.65L42.7083 36.7336C42.7083 36.9551 42.6917 37.1766 42.6667 37.398V38.7188C42.6667 40.5316 41.175 42 39.3333 42H38C37.9083 42 37.8167 42 37.725 41.9918C37.6083 42 37.4917 42 37.375 42H34.6667H32.6667C30.825 42 29.3333 40.5316 29.3333 38.7188V36.75V31.5C29.3333 30.048 28.1417 28.875 26.6667 28.875H21.3333C19.8583 28.875 18.6667 30.048 18.6667 31.5V36.75V38.7188C18.6667 40.5316 17.175 42 15.3333 42H13.3333H10.675C10.55 42 10.425 41.9918 10.3 41.9836C10.2 41.9918 10.1 42 10 42H8.66667C6.825 42 5.33333 40.5316 5.33333 38.7188V29.5312C5.33333 29.4574 5.33333 29.3754 5.34167 29.3016V23.5922H2.66667C1.16667 23.5922 0 22.4438 0 20.959C0 20.2207 0.25 19.5645 0.833333 18.9902L22.2 0.65625C22.7833 0.0820312 23.45 0 24.0333 0C24.6167 0 25.2833 0.164062 25.7833 0.574219L47.0667 18.9902C47.7333 19.5645 48.0667 20.2207 47.9833 20.959Z" fill="#001F3F"/>
</svg>
