<svg width="16" height="17" viewBox="0 0 16 17" fill="none" xmlns="http://www.w3.org/2000/svg">
<path d="M3.58143 17H0.264286V5.64997H3.58143V17ZM1.92107 4.10172C0.860357 4.10172 0 3.16822 0 2.04118C7.59214e-09 1.49983 0.202398 0.980645 0.562669 0.597849C0.92294 0.215053 1.41157 0 1.92107 0C2.43057 0 2.9192 0.215053 3.27947 0.597849C3.63974 0.980645 3.84214 1.49983 3.84214 2.04118C3.84214 3.16822 2.98143 4.10172 1.92107 4.10172ZM15.9964 17H12.6864V11.4749C12.6864 10.1581 12.6614 8.46945 10.9618 8.46945C9.23714 8.46945 8.97286 9.90006 8.97286 11.38V17H5.65929V5.64997H8.84071V7.19822H8.88714C9.33 6.30646 10.4118 5.36537 12.0257 5.36537C15.3829 5.36537 16 7.7143 16 10.7653V17H15.9964Z" fill="#001F3F"/>
</svg>
