<svg width="14" height="16" viewBox="0 0 14 16" fill="none" xmlns="http://www.w3.org/2000/svg">
<path d="M6.70339 16.0013C6.14202 16.0042 5.58813 15.8725 5.0881 15.6174C4.58807 15.3622 4.15646 14.9909 3.82939 14.5347C1.28873 11.03 6.10352e-05 8.39533 6.10352e-05 6.70333C6.10352e-05 4.9255 0.706303 3.22048 1.96342 1.96336C3.22054 0.706242 4.92556 0 6.70339 0C8.48123 0 10.1862 0.706242 11.4434 1.96336C12.7005 3.22048 13.4067 4.9255 13.4067 6.70333C13.4067 8.39533 12.1181 11.03 9.5774 14.5347C9.25033 14.9909 8.81871 15.3622 8.31868 15.6174C7.81865 15.8725 7.26477 16.0042 6.70339 16.0013ZM6.70339 1.45533C5.31167 1.45692 3.97741 2.01048 2.99331 2.99458C2.00921 3.97868 1.45565 5.31294 1.45406 6.70467C1.45406 8.04467 2.71606 10.5227 5.00673 13.682C5.20119 13.9499 5.45631 14.1679 5.7512 14.3182C6.0461 14.4685 6.3724 14.5469 6.70339 14.5469C7.03439 14.5469 7.36069 14.4685 7.65559 14.3182C7.95048 14.1679 8.2056 13.9499 8.40006 13.682C10.6907 10.5227 11.9527 8.04467 11.9527 6.70467C11.9511 5.31294 11.3976 3.97868 10.4135 2.99458C9.42938 2.01048 8.09512 1.45692 6.70339 1.45533Z" fill="#C1D4E8"/>
</svg>
