<svg width="36" height="36" viewBox="0 0 36 36" fill="none" xmlns="http://www.w3.org/2000/svg">
<path d="M35.6267 30.12L31.8632 21.8265C31.2362 20.445 29.9567 19.536 28.4417 19.392C26.9102 19.2465 25.4942 19.9065 24.6182 21.147L21.8552 25.062L9.75917 17.5905L11.4077 12.9945C11.5517 12.591 11.8637 12.27 12.2612 12.1095C12.4352 12.0345 12.6227 11.9985 12.8132 11.9985C13.0412 11.9985 13.2722 12.051 13.4852 12.1575L14.1902 12.423C15.2207 12.936 16.0067 13.8165 16.4012 14.901L18.0407 19.671C18.3137 20.4645 19.1837 20.88 19.9727 20.5935C20.7422 20.3145 21.1457 19.4685 20.8787 18.6945L19.2212 13.875C18.5642 12.0645 17.2532 10.5945 15.5297 9.7365L14.8247 9.471C13.6742 8.898 12.3332 8.844 11.1407 9.324C9.94817 9.8025 9.01667 10.7715 8.58317 11.9805L7.14917 15.9765L2.28767 12.9735C1.58267 12.5385 0.658667 12.7545 0.223667 13.461C-0.211333 14.166 0.00616738 15.09 0.711167 15.525L20.1212 27.516L18.7652 29.4375C17.8652 30.7095 17.7527 32.358 18.4682 33.7395C19.1897 35.133 20.6177 35.9985 22.1912 35.9985H31.8077C33.2417 35.9985 34.5602 35.28 35.3342 34.08C36.1022 32.8875 36.2102 31.407 35.6252 30.1185L35.6267 30.12ZM32.8127 32.457C32.7092 32.6205 32.4002 33 31.8092 33H22.1927C21.5357 33 21.2327 32.553 21.1337 32.361C21.0377 32.175 20.8517 31.686 21.2177 31.1685L27.0707 22.875C27.3737 22.446 27.7952 22.374 28.0442 22.374C28.0877 22.374 28.1282 22.374 28.1582 22.3785C28.3667 22.3995 28.8767 22.5045 29.1302 23.0655L32.8937 31.3605C33.1262 31.8735 32.9147 32.298 32.8112 32.4555L32.8127 32.457ZM13.5002 3.75C13.5002 1.6785 15.1787 0 17.2502 0C19.3217 0 21.0002 1.6785 21.0002 3.75C21.0002 5.8215 19.3217 7.5 17.2502 7.5C15.1787 7.5 13.5002 5.8215 13.5002 3.75ZM15.0002 28.5V34.5C15.0002 35.3295 14.3297 36 13.5002 36C12.6707 36 12.0002 35.3295 12.0002 34.5V28.5C12.0002 27.6705 12.6707 27 13.5002 27C14.3297 27 15.0002 27.6705 15.0002 28.5ZM7.28867 24.3045L3.49067 35.0025C3.27167 35.616 2.69417 36 2.07767 36C1.91117 36 1.74167 35.9715 1.57517 35.913C0.793667 35.6355 0.387167 34.7775 0.664667 33.9975L4.46267 23.2995C4.74017 22.518 5.59217 22.113 6.37817 22.389C7.15967 22.6665 7.56617 23.5245 7.28867 24.3045Z" fill="white"/>
</svg>
